  0
SECTION
  2
HEADER
  9
$ACADVER
  1
AC1009
  9
$MEASUREMENT
 70
     1
  0
ENDSEC
  0
SECTION
  2
ENTITIES
  0
LWPOLYLINE
  8
0
 62
7
 90
5
 70
1
 10
39.137500
 20
23.910000
 10
39.137500
 20
23.360000
 10
40.237500
 20
23.360000
 10
40.237500
 20
24.460000
 10
39.137500
 20
24.460000
  0
LWPOLYLINE
  8
0
 62
7
 90
5
 70
1
 10
39.137500
 20
21.810000
 10
39.137500
 20
21.260000
 10
40.237500
 20
21.260000
 10
40.237500
 20
22.360000
 10
39.137500
 20
22.360000
  0
LWPOLYLINE
  8
0
 62
7
 90
5
 70
1
 10
16.510000
 20
6.310000
 10
15.660000
 20
6.310000
 10
15.660000
 20
4.260000
 10
17.360000
 20
4.260000
 10
17.360000
 20
6.310000
  0
LWPOLYLINE
  8
0
 62
7
 90
5
 70
1
 10
16.510000
 20
3.360000
 10
15.660000
 20
3.360000
 10
15.660000
 20
1.310000
 10
17.360000
 20
1.310000
 10
17.360000
 20
3.360000
  0
LWPOLYLINE
  8
0
 62
7
 90
5
 70
1
 10
19.050000
 20
4.160000
 10
19.750000
 20
4.160000
 10
19.750000
 20
5.360000
 10
18.350000
 20
5.360000
 10
18.350000
 20
4.160000
  0
LWPOLYLINE
  8
0
 62
7
 90
5
 70
1
 10
19.050000
 20
2.260000
 10
19.750000
 20
2.260000
 10
19.750000
 20
3.460000
 10
18.350000
 20
3.460000
 10
18.350000
 20
2.260000
  0
LWPOLYLINE
  8
0
 62
7
 90
5
 70
1
 10
26.004000
 20
3.683000
 10
26.004000
 20
2.983000
 10
27.204000
 20
2.983000
 10
27.204000
 20
4.383000
 10
26.004000
 20
4.383000
  0
LWPOLYLINE
  8
0
 62
7
 90
5
 70
1
 10
24.104000
 20
3.683000
 10
24.104000
 20
2.983000
 10
25.304000
 20
2.983000
 10
25.304000
 20
4.383000
 10
24.104000
 20
4.383000
  0
LWPOLYLINE
  8
0
 62
7
 90
5
 70
1
 10
29.019500
 20
6.310000
 10
28.169500
 20
6.310000
 10
28.169500
 20
4.260000
 10
29.869500
 20
4.260000
 10
29.869500
 20
6.310000
  0
LWPOLYLINE
  8
0
 62
7
 90
5
 70
1
 10
29.019500
 20
3.360000
 10
28.169500
 20
3.360000
 10
28.169500
 20
1.310000
 10
29.869500
 20
1.310000
 10
29.869500
 20
3.360000
  0
LWPOLYLINE
  8
0
 62
7
 90
5
 70
1
 10
37.528500
 20
7.144500
 10
38.228500
 20
7.144500
 10
38.228500
 20
8.344500
 10
36.828500
 20
8.344500
 10
36.828500
 20
7.144500
  0
LWPOLYLINE
  8
0
 62
7
 90
5
 70
1
 10
37.528500
 20
5.244500
 10
38.228500
 20
5.244500
 10
38.228500
 20
6.444500
 10
36.828500
 20
6.444500
 10
36.828500
 20
5.244500
  0
LWPOLYLINE
  8
0
 62
7
 90
5
 70
1
 10
33.306500
 20
11.176000
 10
33.306500
 20
10.476000
 10
34.506500
 20
10.476000
 10
34.506500
 20
11.876000
 10
33.306500
 20
11.876000
  0
LWPOLYLINE
  8
0
 62
7
 90
5
 70
1
 10
31.406500
 20
11.176000
 10
31.406500
 20
10.476000
 10
32.606500
 20
10.476000
 10
32.606500
 20
11.876000
 10
31.406500
 20
11.876000
  0
LWPOLYLINE
  8
0
 62
7
 90
5
 70
1
 10
35.520000
 20
7.620000
 10
35.520000
 20
8.470000
 10
33.470000
 20
8.470000
 10
33.470000
 20
6.770000
 10
35.520000
 20
6.770000
  0
LWPOLYLINE
  8
0
 62
7
 90
5
 70
1
 10
32.570000
 20
7.620000
 10
32.570000
 20
8.470000
 10
30.520000
 20
8.470000
 10
30.520000
 20
6.770000
 10
32.570000
 20
6.770000
  0
LWPOLYLINE
  8
0
 62
7
 90
5
 70
1
 10
16.510000
 20
17.190000
 10
17.810000
 20
17.190000
 10
17.810000
 20
19.640000
 10
15.210000
 20
19.640000
 10
15.210000
 20
17.190000
  0
LWPOLYLINE
  8
0
 62
7
 90
5
 70
1
 10
16.510000
 20
23.540000
 10
17.810000
 20
23.540000
 10
17.810000
 20
25.990000
 10
15.210000
 20
25.990000
 10
15.210000
 20
23.540000
  0
LWPOLYLINE
  8
0
 62
7
 90
5
 70
1
 10
16.510000
 20
36.621000
 10
17.810000
 20
36.621000
 10
17.810000
 20
39.071000
 10
15.210000
 20
39.071000
 10
15.210000
 20
36.621000
  0
LWPOLYLINE
  8
0
 62
7
 90
5
 70
1
 10
16.510000
 20
42.971000
 10
17.810000
 20
42.971000
 10
17.810000
 20
45.421000
 10
15.210000
 20
45.421000
 10
15.210000
 20
42.971000
  0
LWPOLYLINE
  8
0
 62
7
 90
5
 70
1
 10
39.337500
 20
29.972000
 10
39.337500
 20
30.672000
 10
38.137500
 20
30.672000
 10
38.137500
 20
29.272000
 10
39.337500
 20
29.272000
  0
LWPOLYLINE
  8
0
 62
7
 90
5
 70
1
 10
41.237500
 20
29.972000
 10
41.237500
 20
30.672000
 10
40.037500
 20
30.672000
 10
40.037500
 20
29.272000
 10
41.237500
 20
29.272000
  0
LWPOLYLINE
  8
0
 62
7
 90
5
 70
1
 10
39.337500
 20
43.561000
 10
39.337500
 20
44.261000
 10
38.137500
 20
44.261000
 10
38.137500
 20
42.861000
 10
39.337500
 20
42.861000
  0
LWPOLYLINE
  8
0
 62
7
 90
5
 70
1
 10
41.237500
 20
43.561000
 10
41.237500
 20
44.261000
 10
40.037500
 20
44.261000
 10
40.037500
 20
42.861000
 10
41.237500
 20
42.861000
  0
LWPOLYLINE
  8
0
 62
7
 90
5
 70
1
 10
42.050000
 20
19.558000
 10
42.050000
 20
19.258000
 10
43.150000
 20
19.258000
 10
43.150000
 20
19.858000
 10
42.050000
 20
19.858000
  0
LWPOLYLINE
  8
0
 62
7
 90
5
 70
1
 10
45.750000
 20
19.558000
 10
45.750000
 20
19.258000
 10
46.850000
 20
19.258000
 10
46.850000
 20
19.858000
 10
45.750000
 20
19.858000
  0
LWPOLYLINE
  8
0
 62
7
 90
5
 70
1
 10
17.272000
 20
12.687000
 10
16.972000
 20
12.687000
 10
16.972000
 20
11.587000
 10
17.572000
 20
11.587000
 10
17.572000
 20
12.687000
  0
LWPOLYLINE
  8
0
 62
7
 90
5
 70
1
 10
17.272000
 20
8.987000
 10
16.972000
 20
8.987000
 10
16.972000
 20
7.887000
 10
17.572000
 20
7.887000
 10
17.572000
 20
8.987000
  0
LWPOLYLINE
  8
0
 62
7
 90
5
 70
1
 10
35.864800
 20
34.214600
 10
35.178200
 20
34.214600
 10
35.178200
 20
33.857400
 10
36.551400
 20
33.857400
 10
36.551400
 20
34.214600
  0
LWPOLYLINE
  8
0
 62
7
 90
5
 70
1
 10
35.864800
 20
35.002000
 10
35.178200
 20
35.002000
 10
35.178200
 20
34.644800
 10
36.551400
 20
34.644800
 10
36.551400
 20
35.002000
  0
LWPOLYLINE
  8
0
 62
7
 90
5
 70
1
 10
35.864800
 20
35.814800
 10
35.178200
 20
35.814800
 10
35.178200
 20
35.457600
 10
36.551400
 20
35.457600
 10
36.551400
 20
35.814800
  0
LWPOLYLINE
  8
0
 62
7
 90
5
 70
1
 10
35.864800
 20
36.602200
 10
35.178200
 20
36.602200
 10
35.178200
 20
36.245000
 10
36.551400
 20
36.245000
 10
36.551400
 20
36.602200
  0
LWPOLYLINE
  8
0
 62
7
 90
5
 70
1
 10
35.864800
 20
37.415000
 10
35.178200
 20
37.415000
 10
35.178200
 20
37.057800
 10
36.551400
 20
37.057800
 10
36.551400
 20
37.415000
  0
LWPOLYLINE
  8
0
 62
7
 90
5
 70
1
 10
35.864800
 20
38.202400
 10
35.178200
 20
38.202400
 10
35.178200
 20
37.845200
 10
36.551400
 20
37.845200
 10
36.551400
 20
38.202400
  0
LWPOLYLINE
  8
0
 62
7
 90
5
 70
1
 10
35.864800
 20
39.015200
 10
35.178200
 20
39.015200
 10
35.178200
 20
38.658000
 10
36.551400
 20
38.658000
 10
36.551400
 20
39.015200
  0
LWPOLYLINE
  8
0
 62
7
 90
5
 70
1
 10
35.864800
 20
39.802600
 10
35.178200
 20
39.802600
 10
35.178200
 20
39.445400
 10
36.551400
 20
39.445400
 10
36.551400
 20
39.802600
  0
LWPOLYLINE
  8
0
 62
7
 90
5
 70
1
 10
34.722600
 20
40.944800
 10
34.722600
 20
41.631400
 10
34.365400
 20
41.631400
 10
34.365400
 20
40.258200
 10
34.722600
 20
40.258200
  0
LWPOLYLINE
  8
0
 62
7
 90
5
 70
1
 10
33.935200
 20
40.944800
 10
33.935200
 20
41.631400
 10
33.578000
 20
41.631400
 10
33.578000
 20
40.258200
 10
33.935200
 20
40.258200
  0
LWPOLYLINE
  8
0
 62
7
 90
5
 70
1
 10
33.122400
 20
40.944800
 10
33.122400
 20
41.631400
 10
32.765200
 20
41.631400
 10
32.765200
 20
40.258200
 10
33.122400
 20
40.258200
  0
LWPOLYLINE
  8
0
 62
7
 90
5
 70
1
 10
32.335000
 20
40.944800
 10
32.335000
 20
41.631400
 10
31.977800
 20
41.631400
 10
31.977800
 20
40.258200
 10
32.335000
 20
40.258200
  0
LWPOLYLINE
  8
0
 62
7
 90
5
 70
1
 10
31.522200
 20
40.944800
 10
31.522200
 20
41.631400
 10
31.165000
 20
41.631400
 10
31.165000
 20
40.258200
 10
31.522200
 20
40.258200
  0
LWPOLYLINE
  8
0
 62
7
 90
5
 70
1
 10
30.734800
 20
40.944800
 10
30.734800
 20
41.631400
 10
30.377600
 20
41.631400
 10
30.377600
 20
40.258200
 10
30.734800
 20
40.258200
  0
LWPOLYLINE
  8
0
 62
7
 90
5
 70
1
 10
29.922000
 20
40.944800
 10
29.922000
 20
41.631400
 10
29.564800
 20
41.631400
 10
29.564800
 20
40.258200
 10
29.922000
 20
40.258200
  0
LWPOLYLINE
  8
0
 62
7
 90
5
 70
1
 10
29.134600
 20
40.944800
 10
29.134600
 20
41.631400
 10
28.777400
 20
41.631400
 10
28.777400
 20
40.258200
 10
29.134600
 20
40.258200
  0
LWPOLYLINE
  8
0
 62
7
 90
5
 70
1
 10
27.635200
 20
39.802600
 10
26.948600
 20
39.802600
 10
26.948600
 20
39.445400
 10
28.321800
 20
39.445400
 10
28.321800
 20
39.802600
  0
LWPOLYLINE
  8
0
 62
7
 90
5
 70
1
 10
27.635200
 20
39.015200
 10
26.948600
 20
39.015200
 10
26.948600
 20
38.658000
 10
28.321800
 20
38.658000
 10
28.321800
 20
39.015200
  0
LWPOLYLINE
  8
0
 62
7
 90
5
 70
1
 10
27.635200
 20
38.202400
 10
26.948600
 20
38.202400
 10
26.948600
 20
37.845200
 10
28.321800
 20
37.845200
 10
28.321800
 20
38.202400
  0
LWPOLYLINE
  8
0
 62
7
 90
5
 70
1
 10
27.635200
 20
37.415000
 10
26.948600
 20
37.415000
 10
26.948600
 20
37.057800
 10
28.321800
 20
37.057800
 10
28.321800
 20
37.415000
  0
LWPOLYLINE
  8
0
 62
7
 90
5
 70
1
 10
27.635200
 20
36.602200
 10
26.948600
 20
36.602200
 10
26.948600
 20
36.245000
 10
28.321800
 20
36.245000
 10
28.321800
 20
36.602200
  0
LWPOLYLINE
  8
0
 62
7
 90
5
 70
1
 10
27.635200
 20
35.814800
 10
26.948600
 20
35.814800
 10
26.948600
 20
35.457600
 10
28.321800
 20
35.457600
 10
28.321800
 20
35.814800
  0
LWPOLYLINE
  8
0
 62
7
 90
5
 70
1
 10
27.635200
 20
35.002000
 10
26.948600
 20
35.002000
 10
26.948600
 20
34.644800
 10
28.321800
 20
34.644800
 10
28.321800
 20
35.002000
  0
LWPOLYLINE
  8
0
 62
7
 90
5
 70
1
 10
27.635200
 20
34.214600
 10
26.948600
 20
34.214600
 10
26.948600
 20
33.857400
 10
28.321800
 20
33.857400
 10
28.321800
 20
34.214600
  0
LWPOLYLINE
  8
0
 62
7
 90
5
 70
1
 10
29.134600
 20
32.715200
 10
29.134600
 20
33.401800
 10
28.777400
 20
33.401800
 10
28.777400
 20
32.028600
 10
29.134600
 20
32.028600
  0
LWPOLYLINE
  8
0
 62
7
 90
5
 70
1
 10
29.922000
 20
32.715200
 10
29.922000
 20
33.401800
 10
29.564800
 20
33.401800
 10
29.564800
 20
32.028600
 10
29.922000
 20
32.028600
  0
LWPOLYLINE
  8
0
 62
7
 90
5
 70
1
 10
30.734800
 20
32.715200
 10
30.734800
 20
33.401800
 10
30.377600
 20
33.401800
 10
30.377600
 20
32.028600
 10
30.734800
 20
32.028600
  0
LWPOLYLINE
  8
0
 62
7
 90
5
 70
1
 10
31.522200
 20
32.715200
 10
31.522200
 20
33.401800
 10
31.165000
 20
33.401800
 10
31.165000
 20
32.028600
 10
31.522200
 20
32.028600
  0
LWPOLYLINE
  8
0
 62
7
 90
5
 70
1
 10
32.335000
 20
32.715200
 10
32.335000
 20
33.401800
 10
31.977800
 20
33.401800
 10
31.977800
 20
32.028600
 10
32.335000
 20
32.028600
  0
LWPOLYLINE
  8
0
 62
7
 90
5
 70
1
 10
33.122400
 20
32.715200
 10
33.122400
 20
33.401800
 10
32.765200
 20
33.401800
 10
32.765200
 20
32.028600
 10
33.122400
 20
32.028600
  0
LWPOLYLINE
  8
0
 62
7
 90
5
 70
1
 10
33.935200
 20
32.715200
 10
33.935200
 20
33.401800
 10
33.578000
 20
33.401800
 10
33.578000
 20
32.028600
 10
33.935200
 20
32.028600
  0
LWPOLYLINE
  8
0
 62
7
 90
5
 70
1
 10
34.722600
 20
32.715200
 10
34.722600
 20
33.401800
 10
34.365400
 20
33.401800
 10
34.365400
 20
32.028600
 10
34.722600
 20
32.028600
  0
LWPOLYLINE
  8
0
 62
7
 90
5
 70
1
 10
32.538200
 20
14.681200
 10
32.538200
 20
15.748800
 10
31.419000
 20
15.748800
 10
31.419000
 20
13.613600
 10
32.538200
 20
13.613600
  0
LWPOLYLINE
  8
0
 62
7
 90
5
 70
1
 10
34.849600
 20
14.681200
 10
34.849600
 20
15.748800
 10
33.730400
 20
15.748800
 10
33.730400
 20
13.613600
 10
34.849600
 20
13.613600
  0
LWPOLYLINE
  8
0
 62
7
 90
5
 70
1
 10
37.161000
 20
14.681200
 10
37.161000
 20
15.748800
 10
36.041800
 20
15.748800
 10
36.041800
 20
13.613600
 10
37.161000
 20
13.613600
  0
LWPOLYLINE
  8
0
 62
7
 90
5
 70
1
 10
36.040000
 20
20.879000
 10
36.040000
 20
21.929000
 10
32.540000
 20
21.929000
 10
32.540000
 20
19.829000
 10
36.040000
 20
19.829000
  0
LWPOLYLINE
  8
0
 62
7
 90
5
 70
1
 10
16.510000
 20
28.660000
 10
16.060000
 20
28.660000
 10
16.060000
 20
27.560000
 10
16.960000
 20
27.560000
 10
16.960000
 20
28.660000
  0
LWPOLYLINE
  8
0
 62
7
 90
5
 70
1
 10
16.510000
 20
30.860000
 10
16.060000
 20
30.860000
 10
16.060000
 20
29.760000
 10
16.960000
 20
29.760000
 10
16.960000
 20
30.860000
  0
LWPOLYLINE
  8
0
 62
7
 90
5
 70
1
 10
16.510000
 20
47.964000
 10
16.060000
 20
47.964000
 10
16.060000
 20
46.864000
 10
16.960000
 20
46.864000
 10
16.960000
 20
47.964000
  0
LWPOLYLINE
  8
0
 62
7
 90
5
 70
1
 10
16.510000
 20
50.164000
 10
16.060000
 20
50.164000
 10
16.060000
 20
49.064000
 10
16.960000
 20
49.064000
 10
16.960000
 20
50.164000
  0
LWPOLYLINE
  8
0
 62
7
 90
5
 70
1
 10
17.560000
 20
52.620000
 10
17.010000
 20
52.620000
 10
17.010000
 20
51.520000
 10
18.110000
 20
51.520000
 10
18.110000
 20
52.620000
  0
LWPOLYLINE
  8
0
 62
7
 90
5
 70
1
 10
15.460000
 20
52.620000
 10
14.910000
 20
52.620000
 10
14.910000
 20
51.520000
 10
16.010000
 20
51.520000
 10
16.010000
 20
52.620000
  0
LWPOLYLINE
  8
0
 62
7
 90
5
 70
1
 10
17.560000
 20
33.633500
 10
17.010000
 20
33.633500
 10
17.010000
 20
32.533500
 10
18.110000
 20
32.533500
 10
18.110000
 20
33.633500
  0
LWPOLYLINE
  8
0
 62
7
 90
5
 70
1
 10
15.460000
 20
33.633500
 10
14.910000
 20
33.633500
 10
14.910000
 20
32.533500
 10
16.010000
 20
32.533500
 10
16.010000
 20
33.633500
  0
LWPOLYLINE
  8
0
 62
7
 90
5
 70
1
 10
43.730000
 20
21.810000
 10
43.730000
 20
22.360000
 10
42.630000
 20
22.360000
 10
42.630000
 20
21.260000
 10
43.730000
 20
21.260000
  0
LWPOLYLINE
  8
0
 62
7
 90
5
 70
1
 10
43.730000
 20
23.910000
 10
43.730000
 20
24.460000
 10
42.630000
 20
24.460000
 10
42.630000
 20
23.360000
 10
43.730000
 20
23.360000
  0
LWPOLYLINE
  8
0
 62
7
 90
5
 70
1
 10
23.820500
 20
39.751000
 10
23.820500
 20
40.401000
 10
22.820500
 20
40.401000
 10
22.820500
 20
39.101000
 10
23.820500
 20
39.101000
  0
LWPOLYLINE
  8
0
 62
7
 90
5
 70
1
 10
25.820500
 20
39.751000
 10
25.820500
 20
40.401000
 10
24.820500
 20
40.401000
 10
24.820500
 20
39.101000
 10
25.820500
 20
39.101000
  0
LWPOLYLINE
  8
0
 62
7
 90
5
 70
1
 10
23.820500
 20
41.402000
 10
23.820500
 20
42.052000
 10
22.820500
 20
42.052000
 10
22.820500
 20
40.752000
 10
23.820500
 20
40.752000
  0
LWPOLYLINE
  8
0
 62
7
 90
5
 70
1
 10
25.820500
 20
41.402000
 10
25.820500
 20
42.052000
 10
24.820500
 20
42.052000
 10
24.820500
 20
40.752000
 10
25.820500
 20
40.752000
  0
LWPOLYLINE
  8
0
 62
7
 90
5
 70
1
 10
23.820500
 20
36.449000
 10
23.820500
 20
37.099000
 10
22.820500
 20
37.099000
 10
22.820500
 20
35.799000
 10
23.820500
 20
35.799000
  0
LWPOLYLINE
  8
0
 62
7
 90
5
 70
1
 10
25.820500
 20
36.449000
 10
25.820500
 20
37.099000
 10
24.820500
 20
37.099000
 10
24.820500
 20
35.799000
 10
25.820500
 20
35.799000
  0
LWPOLYLINE
  8
0
 62
7
 90
5
 70
1
 10
23.820500
 20
38.100000
 10
23.820500
 20
38.750000
 10
22.820500
 20
38.750000
 10
22.820500
 20
37.450000
 10
23.820500
 20
37.450000
  0
LWPOLYLINE
  8
0
 62
7
 90
5
 70
1
 10
25.820500
 20
38.100000
 10
25.820500
 20
38.750000
 10
24.820500
 20
38.750000
 10
24.820500
 20
37.450000
 10
25.820500
 20
37.450000
  0
LWPOLYLINE
  8
0
 62
7
 90
5
 70
1
 10
3.310000
 20
52.070000
 10
3.310000
 20
52.720000
 10
2.310000
 20
52.720000
 10
2.310000
 20
51.420000
 10
3.310000
 20
51.420000
  0
LWPOLYLINE
  8
0
 62
7
 90
5
 70
1
 10
5.310000
 20
52.070000
 10
5.310000
 20
52.720000
 10
4.310000
 20
52.720000
 10
4.310000
 20
51.420000
 10
5.310000
 20
51.420000
  0
LWPOLYLINE
  8
0
 62
7
 90
5
 70
1
 10
3.246500
 20
33.655000
 10
3.246500
 20
34.305000
 10
2.246500
 20
34.305000
 10
2.246500
 20
33.005000
 10
3.246500
 20
33.005000
  0
LWPOLYLINE
  8
0
 62
7
 90
5
 70
1
 10
5.246500
 20
33.655000
 10
5.246500
 20
34.305000
 10
4.246500
 20
34.305000
 10
4.246500
 20
33.005000
 10
5.246500
 20
33.005000
  0
LWPOLYLINE
  8
0
 62
7
 90
5
 70
1
 10
32.837500
 20
25.463500
 10
32.837500
 20
26.113500
 10
31.837500
 20
26.113500
 10
31.837500
 20
24.813500
 10
32.837500
 20
24.813500
  0
LWPOLYLINE
  8
0
 62
7
 90
5
 70
1
 10
34.837500
 20
25.463500
 10
34.837500
 20
26.113500
 10
33.837500
 20
26.113500
 10
33.837500
 20
24.813500
 10
34.837500
 20
24.813500
  0
LWPOLYLINE
  8
0
 62
7
 90
5
 70
1
 10
49.712500
 20
5.143500
 10
49.712500
 20
4.493500
 10
50.712500
 20
4.493500
 10
50.712500
 20
5.793500
 10
49.712500
 20
5.793500
  0
LWPOLYLINE
  8
0
 62
7
 90
5
 70
1
 10
47.712500
 20
5.143500
 10
47.712500
 20
4.493500
 10
48.712500
 20
4.493500
 10
48.712500
 20
5.793500
 10
47.712500
 20
5.793500
  0
LWPOLYLINE
  8
0
 62
7
 90
5
 70
1
 10
43.759500
 20
5.143500
 10
43.759500
 20
5.793500
 10
42.759500
 20
5.793500
 10
42.759500
 20
4.493500
 10
43.759500
 20
4.493500
  0
LWPOLYLINE
  8
0
 62
7
 90
5
 70
1
 10
45.759500
 20
5.143500
 10
45.759500
 20
5.793500
 10
44.759500
 20
5.793500
 10
44.759500
 20
4.493500
 10
45.759500
 20
4.493500
  0
LWPOLYLINE
  8
0
 62
7
 90
5
 70
1
 10
47.807500
 20
22.161500
 10
47.807500
 20
21.511500
 10
48.807500
 20
21.511500
 10
48.807500
 20
22.811500
 10
47.807500
 20
22.811500
  0
LWPOLYLINE
  8
0
 62
7
 90
5
 70
1
 10
45.807500
 20
22.161500
 10
45.807500
 20
21.511500
 10
46.807500
 20
21.511500
 10
46.807500
 20
22.811500
 10
45.807500
 20
22.811500
  0
LWPOLYLINE
  8
0
 62
7
 90
5
 70
1
 10
47.807500
 20
23.876000
 10
47.807500
 20
23.226000
 10
48.807500
 20
23.226000
 10
48.807500
 20
24.526000
 10
47.807500
 20
24.526000
  0
LWPOLYLINE
  8
0
 62
7
 90
5
 70
1
 10
45.807500
 20
23.876000
 10
45.807500
 20
23.226000
 10
46.807500
 20
23.226000
 10
46.807500
 20
24.526000
 10
45.807500
 20
24.526000
  0
ENDSEC
  0
EOF
